<svg xmlns="http://www.w3.org/2000/svg" width="48.49" height="48.49" viewBox="0 0 48.49 48.49">
  <g id="_3d-modelling" data-name="3d-modelling" transform="translate(-2 -2)">
    <path id="Path_10" data-name="Path 10" d="M47.892,2H4.6A2.6,2.6,0,0,0,2,4.6V35.77a2.6,2.6,0,0,0,2.6,2.6H47.892a2.6,2.6,0,0,0,2.6-2.6V4.6a2.6,2.6,0,0,0-2.6-2.6Zm-.866,3.464V31.44H5.464V5.464ZM34.9,48.758a1.732,1.732,0,0,1-1.732,1.732H19.318a1.732,1.732,0,1,1,0-3.464H21.05V40.965H31.44v6.061h1.732A1.732,1.732,0,0,1,34.9,48.758Z" transform="translate(0 0)" fill="#105689"/>
    <path id="Path_11" data-name="Path 11" d="M12.056,8.767l8.172-2.724a.509.509,0,0,1,.329,0l8.172,2.724-8.339,2.78Zm7.036,15.839-8.737-2.913A.52.52,0,0,1,10,21.2V10.822l9.092,3.031ZM30.781,10.822V21.2a.521.521,0,0,1-.355.494l-8.737,2.911V13.853Z" transform="translate(5.854 2.938)" fill="#105689"/>
  </g>
</svg>
