<svg xmlns="http://www.w3.org/2000/svg" width="46.561" height="46.561" viewBox="0 0 46.561 46.561">
  <g id="architecture" transform="translate(0 0)">
    <path id="Path_7" data-name="Path 7" d="M42.468,12h4.092V2.851a1.364,1.364,0,0,0-2.329-.965L1.887,44.231a1.364,1.364,0,0,0,.965,2.329H12V42.923a1.364,1.364,0,1,1,2.728,0V46.56H18.37V42.923a1.364,1.364,0,1,1,2.728,0V46.56h3.638V42.923a1.364,1.364,0,1,1,2.728,0V46.56H31.1V42.923a1.364,1.364,0,0,1,2.728,0V46.56h3.638V42.923a1.364,1.364,0,1,1,2.728,0V46.56h5A1.365,1.365,0,0,0,46.561,45.2v-5H42.923a1.364,1.364,0,1,1,0-2.728h3.638V33.829H42.923a1.364,1.364,0,1,1,0-2.728h3.638V27.463H42.923a1.364,1.364,0,1,1,0-2.728h3.638V21.1H42.923a1.364,1.364,0,1,1,0-2.728h3.638V14.732H42.468a1.364,1.364,0,0,1,0-2.728ZM38.376,37.012a1.365,1.365,0,0,1-1.364,1.364h-14.4a1.364,1.364,0,0,1-.965-2.329l14.4-14.4a1.364,1.364,0,0,1,2.329.965ZM4.209,26.41,10,32.2l-3.81,3.809a1.364,1.364,0,0,1-1.929,0L.4,32.148a1.364,1.364,0,0,1,0-1.929ZM31.7,10.123c.127,0,.256,0,.386-.011L11.926,30.269,6.138,24.481,26.029,4.59a5.6,5.6,0,0,0,1.6,3.932A5.626,5.626,0,0,0,31.7,10.123Zm4.58-8.175L33.944,6.863c-1.667.76-3.4.72-4.386-.27A3.693,3.693,0,0,1,29.1,2.674L34.457.131a1.364,1.364,0,0,1,1.818,1.817Z" transform="translate(0 0)" fill="#105689"/>
  </g>
</svg>
