<svg xmlns="http://www.w3.org/2000/svg" width="73.527" height="78.429" viewBox="0 0 73.527 78.429">
  <g id="civil-infrastructure" transform="translate(-38.48 -24)">
    <g id="Layer_1" transform="translate(38.48 24)">
      <g id="_574357464" data-name="574357464" transform="translate(0 0)">
        <path id="_574359072" data-name="574359072" d="M110.824,264.982H39.663A1.183,1.183,0,0,1,38.48,263.8v-7.566a1.183,1.183,0,0,1,1.183-1.183h71.161a1.183,1.183,0,0,1,1.183,1.183V263.8a1.183,1.183,0,0,1-1.183,1.183Zm-69.978-2.366h68.795v-5.2H40.846Z" transform="translate(-38.48 -215.996)" fill="#105689"/>
        <path id="_574359000" data-name="574359000" d="M97.312,149.67H88.433a1.183,1.183,0,0,1-1.183-1.183V119.044a1.183,1.183,0,0,1,1.183-1.183h8.879a1.183,1.183,0,0,1,1.183,1.183v29.443A1.183,1.183,0,0,1,97.312,149.67Zm-7.7-2.366h6.513V120.227H89.616Zm7.7-34.642H88.433a1.183,1.183,0,0,1-1.183-1.183V82.033a1.183,1.183,0,0,1,1.183-1.183h8.879A1.183,1.183,0,0,1,98.5,82.033v29.445A1.183,1.183,0,0,1,97.312,112.661Zm-7.7-2.366h6.513V83.216H89.616Z" transform="translate(-79.006 -71.241)" fill="#105689"/>
        <path id="_574359096" data-name="574359096" d="M368.282,331.62H359.4a1.183,1.183,0,0,1-1.183-1.183V300.993a1.183,1.183,0,0,1,1.183-1.183h8.879a1.183,1.183,0,0,1,1.183,1.183v29.443A1.183,1.183,0,0,1,368.282,331.62Zm-7.7-2.366H367.1V302.176h-6.513Z" transform="translate(-304.175 -253.19)" fill="#105689"/>
        <path id="_574358184" data-name="574358184" d="M368.282,112.661H359.4a1.183,1.183,0,0,1-1.183-1.183V82.033A1.183,1.183,0,0,1,359.4,80.85h8.879a1.183,1.183,0,0,1,1.183,1.183v29.445A1.183,1.183,0,0,1,368.282,112.661Zm-7.7-2.366H367.1V83.216h-6.513Z" transform="translate(-304.175 -71.241)" fill="#105689"/>
        <path id="_574358112" data-name="574358112" d="M358.437,35.976h-13.9a1.183,1.183,0,0,1-1.183-1.183V25.183A1.183,1.183,0,0,1,344.533,24h13.9a1.183,1.183,0,0,1,1.183,1.183v9.609A1.183,1.183,0,0,1,358.437,35.976Zm-12.721-2.366h11.538V26.366H345.716Z" transform="translate(-291.818 -24)" fill="#105689"/>
        <path id="_574357968" data-name="574357968" d="M177.886,322.829h-3.994a1.183,1.183,0,0,1-1.183-1.183,13.284,13.284,0,1,0-26.568,0,1.183,1.183,0,0,1-1.183,1.183h-3.994a1.183,1.183,0,0,1-1.183-1.183v-9.153a1.183,1.183,0,0,1,.123-.527,21.8,21.8,0,0,1,39.046,0,1.183,1.183,0,0,1,.123.527v9.153a1.183,1.183,0,0,1-1.187,1.183Zm-2.855-2.366H176.7v-7.687a19.438,19.438,0,0,0-34.556,0v7.687h1.672a15.65,15.65,0,0,1,31.213,0Z" transform="translate(-122.657 -253.242)" fill="#105689"/>
        <path id="_574358016" data-name="574358016" d="M159.384,131.021a23.5,23.5,0,0,1-12.14-3.235,16.152,16.152,0,0,1-7.468-9.9,1.183,1.183,0,1,1,2.292-.585c2,7.838,10.138,11.352,17.315,11.352S174.7,125.145,176.7,117.3a1.183,1.183,0,0,1,2.292.58,16.177,16.177,0,0,1-7.468,9.9A23.52,23.52,0,0,1,159.384,131.021Z" transform="translate(-122.617 -100.765)" fill="#105689"/>
        <path id="_574358064" data-name="574358064" d="M195.573,193.332a1.183,1.183,0,0,1-1.183-1.183V179.113a1.183,1.183,0,0,1,2.366,0v13.035A1.183,1.183,0,0,1,195.573,193.332Z" transform="translate(-168.037 -151.911)" fill="#105689"/>
        <path id="_574357368" data-name="574357368" d="M250.183,202.531A1.183,1.183,0,0,1,249,201.348V190.183a1.183,1.183,0,1,1,2.366,0v11.171A1.183,1.183,0,0,1,250.183,202.531Z" transform="translate(-213.416 -161.11)" fill="#105689"/>
        <path id="_574357512" data-name="574357512" d="M304.793,193.332a1.183,1.183,0,0,1-1.183-1.183V179.113a1.183,1.183,0,1,1,2.366,0v13.035A1.183,1.183,0,0,1,304.793,193.332Z" transform="translate(-258.795 -151.911)" fill="#105689"/>
        <path id="_574357176" data-name="574357176" d="M87.477,35.976h-13.9a1.183,1.183,0,0,1-1.183-1.183V25.183A1.183,1.183,0,0,1,73.573,24h13.9a1.183,1.183,0,0,1,1.183,1.183v9.609A1.183,1.183,0,0,1,87.477,35.976ZM74.756,33.609H86.294V26.366H74.756Z" transform="translate(-66.658 -24)" fill="#105689"/>
      </g>
    </g>
  </g>
</svg>
