<svg xmlns="http://www.w3.org/2000/svg" width="55.974" height="56.532" viewBox="0 0 55.974 56.532">
  <g id="construction" transform="translate(-14.408 -12)">
    <path id="Path_5" data-name="Path 5" d="M59.169,32.3h8.446V31.1H59.169Zm10.055,1.854H57.561A1.161,1.161,0,0,0,56.4,35.308V68.532h3.4V58.9a1.721,1.721,0,0,1,1.8-1.622h3.578a1.722,1.722,0,0,1,1.8,1.622v9.63h2.474a.929.929,0,0,0,.927-.927v-32.3a1.16,1.16,0,0,0-1.158-1.158ZM62.466,50.877a.464.464,0,0,1-.463.463h-2.37a.464.464,0,0,1-.463-.463V48.817a.464.464,0,0,1,.463-.463H62a.464.464,0,0,1,.463.463Zm0-4.841A.464.464,0,0,1,62,46.5h-2.37a.464.464,0,0,1-.463-.463V43.975a.464.464,0,0,1,.463-.463H62a.464.464,0,0,1,.463.463Zm0-4.841a.464.464,0,0,1-.463.463h-2.37a.464.464,0,0,1-.463-.463V39.134a.464.464,0,0,1,.463-.463H62a.464.464,0,0,1,.463.463Zm5.15,9.682a.464.464,0,0,1-.463.463h-2.37a.464.464,0,0,1-.463-.463V48.817a.464.464,0,0,1,.463-.463h2.37a.464.464,0,0,1,.463.463Zm0-4.841a.464.464,0,0,1-.463.463h-2.37a.464.464,0,0,1-.463-.463V43.975a.464.464,0,0,1,.463-.463h2.37a.464.464,0,0,1,.463.463Zm0-4.841a.464.464,0,0,1-.463.463h-2.37a.464.464,0,0,1-.463-.463V39.134a.464.464,0,0,1,.463-.463h2.37a.464.464,0,0,1,.463.463ZM44.263,44.326h8.446V43.132H44.263Zm9.373,1.853H43.581a1.161,1.161,0,0,0-1.158,1.158V67.374a1.161,1.161,0,0,0,1.158,1.158H54.549V46.179ZM47.559,63.227a.464.464,0,0,1-.463.463h-2.37a.464.464,0,0,1-.463-.463V61.166a.464.464,0,0,1,.463-.463H47.1a.464.464,0,0,1,.463.463Zm0-4.841a.464.464,0,0,1-.463.463h-2.37a.464.464,0,0,1-.463-.463V56.325a.464.464,0,0,1,.463-.463H47.1a.464.464,0,0,1,.463.463Zm0-4.841a.464.464,0,0,1-.463.463h-2.37a.464.464,0,0,1-.463-.463V51.484a.464.464,0,0,1,.463-.463H47.1a.464.464,0,0,1,.463.463Zm5.15,9.682a.464.464,0,0,1-.463.463h-2.37a.464.464,0,0,1-.463-.463V61.166a.464.464,0,0,1,.463-.463h2.37a.464.464,0,0,1,.463.463Zm0-4.841a.464.464,0,0,1-.463.463h-2.37a.464.464,0,0,1-.463-.463V56.325a.464.464,0,0,1,.463-.463h2.37a.464.464,0,0,1,.463.463Zm0-4.841a.464.464,0,0,1-.463.463h-2.37a.464.464,0,0,1-.463-.463V51.484a.464.464,0,0,1,.463-.463h2.37a.464.464,0,0,1,.463.463ZM22.24,25.3l-.518-.758V25.3Zm34.009.217L51.67,21.693a.924.924,0,0,0-.634-.251H49.591l-16.9-8.132v-.383A.927.927,0,0,0,31.762,12H28.6a.926.926,0,0,0-.894.687l-.246.91-8.741,7.046H15.181a.775.775,0,0,0-.773.773v5.768a.775.775,0,0,0,.773.773h5.768a.775.775,0,0,0,.773-.773v-.025h2.789V64.174H22.077a.7.7,0,0,0-.7.7v2.968a.7.7,0,0,0,.7.7H35.123a.7.7,0,0,0,.7-.7V64.869a.7.7,0,0,0-.7-.7H32.689V37.791H42.07a.58.58,0,0,0,.579-.579V32.2l-2.577-5.038h9.86v7.284H48.741a.464.464,0,0,0-.463.463v4.236a.464.464,0,0,0,.463.463h4.236a.464.464,0,0,0,.463-.463V34.906a.464.464,0,0,0-.463-.463H51.786V27.159l3.87,0a.925.925,0,0,0,.594-1.635ZM29.308,13.854h1.527v7.588H27.257Zm-7.866,6.969,5.2-4.189-1.3,4.808H21.722v-.025A.772.772,0,0,0,21.442,20.822Zm2.684,3.965L23.106,23.3h2.513Zm3.73-1.109L29.483,25.3H26.23Zm-1.492,4.79,4.086,4.086-4.086,4.086ZM30.451,45.2l-4.086,4.087V41.116Zm-4.086,8.561,4.086,4.087-4.086,4.086Zm4.47,10.41H26.748l4.087-4.087Zm0-8.561-4.087-4.086,4.087-4.087Zm0-12.647-4.087-4.086,4.087-4.086Zm0-12.647-3.16-3.16h3.16Zm.885-5.4L30.094,23.3h3.252ZM39.869,35.01H34.542v-6H37.9l1.972,3.855Zm-5.912-9.705,1.626-1.626,1.626,1.626Zm5.489-.384L37.82,23.3h3.252Zm2.237.384,1.626-1.626,1.626,1.626Zm-9-3.863V15.358l12.645,6.084Zm14.485,3.48L45.547,23.3H48.8Zm2.237.384,1.683-1.683,2.012,1.683Z" fill="#105689" fill-rule="evenodd"/>
  </g>
</svg>
