<svg xmlns="http://www.w3.org/2000/svg" width="16" height="14.224" viewBox="0 0 16 14.224">
  <path id="house-solid" d="M16,7.1a.9.9,0,0,1-.889.892h-.889l.019,4.45a2.038,2.038,0,0,1-.014.225v.447a1.111,1.111,0,0,1-1.111,1.111h-.444c-.031,0-.061,0-.092,0s-.078,0-.117,0H10.89a1.111,1.111,0,0,1-1.111-1.111V10.668a.888.888,0,0,0-.889-.889H7.112a.888.888,0,0,0-.889.889v2.445a1.111,1.111,0,0,1-1.111,1.111H3.559c-.042,0-.083,0-.125-.006s-.067.006-.1.006H2.889a1.111,1.111,0,0,1-1.111-1.111V10a.728.728,0,0,1,0-.078V7.99H.889A.878.878,0,0,1,0,7.1a.9.9,0,0,1,.278-.667L7.4.222A.8.8,0,0,1,8.012,0,.923.923,0,0,1,8.6.194l7.1,6.237A.761.761,0,0,1,16,7.1Z" fill="#dfa01e"/>
</svg>
