<svg xmlns="http://www.w3.org/2000/svg" width="45.813" height="45.049" viewBox="0 0 45.813 45.049">
  <g id="planning" transform="translate(-2 -3)">
    <path id="Path_8" data-name="Path 8" d="M46.286,27.906H42.468v3.054L38.65,27.143l-9.163,9.163V48.522H36.36V38.6h4.581v9.926h6.872V36.305l-1.527-1.527ZM5.054,48.522H8.108V8.054H5.054A3.054,3.054,0,0,1,2,5V45.468A3.054,3.054,0,0,0,5.054,48.522Z" transform="translate(0 -0.473)" fill="#105689"/>
    <path id="Path_9" data-name="Path 9" d="M5.527,6.054h4.581V41.177H28.434V35.2l10.69-10.69L41.414,26.8v-.894h5.345V3H5.527a1.527,1.527,0,0,0,0,3.054ZM16.98,38.887H15.453V37.36H16.98Zm3.054,0H18.507V37.36h1.527Zm22.906-33.6V21.325H33.015V19.035h3.054v-.764a3.825,3.825,0,0,0-3.054-3.741V5.291ZM13.926,15.98h6.108V14.453H13.926V5.291h9.163v9.163h-.764V15.98h2.291V5.291h6.872V15.98h.764a2.3,2.3,0,0,1,2.161,1.527H31.488v3.818H26.906V32.778H21.562V29.724a3.053,3.053,0,0,0-3.054,3.054H13.926ZM12.4,37.36h1.527v1.527H12.4Z" transform="translate(-0.473)" fill="#105689"/>
  </g>
</svg>
