<svg xmlns="http://www.w3.org/2000/svg" width="84.73" height="80.419" viewBox="0 0 84.73 80.419">
  <g id="residential" transform="translate(-4 -5.424)">
    <path id="Path_3" data-name="Path 3" d="M87.657,20.427,38.52,5.489a1.513,1.513,0,0,0-1.952,1.448v7.468a1.513,1.513,0,0,0,1.071,1.448L41.2,16.935V27.557L5.12,37.264A1.513,1.513,0,0,0,4,38.726v5.456a1.524,1.524,0,0,0,1.513,1.513,22.887,22.887,0,0,0,2.3-.567v39.2a1.513,1.513,0,0,0,1.513,1.513c12.694-.02,73.258,0,73.258,0A1.513,1.513,0,0,0,84.1,84.33V29.978l2.677.814a1.513,1.513,0,0,0,1.953-1.448V21.875a1.513,1.513,0,0,0-1.073-1.448ZM7.026,39.888l34.17-9.2V33.01L10.1,41.383c-.728.192-2.335.629-3.073.828Zm3.816,4.427L41.2,36.266V82.819H37.813V61.546A1.513,1.513,0,0,0,36.3,60.033H15.738a1.513,1.513,0,0,0-1.513,1.513V82.819H10.843Zm6.411,23.511H34.787v1.781H17.251ZM34.787,64.8H17.251V63.057H34.787ZM17.251,72.633H34.787v1.781H17.251Zm0,10.186V77.44H34.787v5.379Zm37.092,0V63.059h6.792v19.76Zm9.818,0V63.059h6.792v19.76Zm16.913,0H73.979V61.546a1.513,1.513,0,0,0-1.513-1.513H52.83a1.513,1.513,0,0,0-1.513,1.513V82.819H44.223V17.855l36.852,11.2ZM85.7,27.3,39.593,13.286V8.978L85.7,23Z" transform="translate(0 0)" fill="#105689"/>
    <path id="Path_4" data-name="Path 4" d="M36.383,42.022H57.239a1.513,1.513,0,0,0,1.513-1.513V25.58a1.513,1.513,0,0,0-1.513-1.513H36.383A1.513,1.513,0,0,0,34.87,25.58V40.509A1.513,1.513,0,0,0,36.383,42.022ZM37.9,27.093h17.83V39H37.9Z" transform="translate(15.837 9.565)" fill="#105689"/>
  </g>
</svg>
