<svg xmlns="http://www.w3.org/2000/svg" width="18" height="12.656" viewBox="0 0 18 12.656">
  <path id="youtube-brands" d="M32.557,65.98a2.262,2.262,0,0,0-1.591-1.6A53.449,53.449,0,0,0,23.933,64a53.449,53.449,0,0,0-7.032.379,2.262,2.262,0,0,0-1.591,1.6,25.466,25.466,0,0,0,0,8.721A2.228,2.228,0,0,0,16.9,76.278a53.449,53.449,0,0,0,7.032.379,53.449,53.449,0,0,0,7.032-.379A2.228,2.228,0,0,0,32.557,74.7a25.465,25.465,0,0,0,0-8.721ZM22.092,73.017V67.665l4.7,2.676Z" transform="translate(-14.933 -64)" fill="#105689"/>
</svg>
